<svg width="32" height="32" viewBox="0 0 2.56 2.56" xmlns="http://www.w3.org/2000/svg" aria-hidden="true" class="iconify iconify--emojione">
	<g fill="#3e4347">
		<path d="M1.06 1.72v.8s.024.04.04.04.04-.04.04-.04v-.8h-.08m.2 0h-.04v.8s.024.04.04.04.04-.04.04-.04v-.8h-.04m.12 0v.8s.024.04.04.04.04-.04.04-.04v-.8h-.08"/>
		<path d="M.92 2.04h.68v.08H.92zm0-.16h.68v.08H.92zm0 .32h.68v.08H.92zm0 .16h.68v.08H.92zM.5.44C.5.464.484.48.46.48S.42.464.42.44v-.4C.42.016.436 0 .46 0S.5.016.5.04v.4m.8 0a.04.04 0 0 1-.08 0v-.4a.04.04 0 0 1 .08 0v.4m.8 0a.04.04 0 0 1-.08 0v-.4a.04.04 0 0 1 .08 0v.4"/>
	</g>
	<path d="M.88.88h.72v.64H.88zM.24.72h.4v.8h-.4zm1.6 0h.4v.8h-.4z" fill="#b2c1c0"/>
	<path d="M1.26.4.78.88h.96zm-.8 0L.14.72h.64zm1.6 0-.32.32h.64z" fill="#42ade2"/>
	<g fill="#3e4347">
		<path d="M1.38 1.16a.12.12 0 0 1-.12.12.12.12 0 0 1-.12-.12.12.12 0 0 1 .24 0z"/>
		<path d="M1.14 1.16h.24v.36h-.24z"/>
	</g>
	<path d="M2.3 1.28h-.16c-.02 0-.04.02-.04.04v.16c0 .02-.02.04-.04.04H1.9c-.02 0-.04-.02-.04-.04v-.16c0-.02-.02-.04-.04-.04h-.16c-.02 0-.04.02-.04.04v.16c0 .02-.02.04-.04.04h-.16c-.02 0-.04-.02-.04-.04v-.16c0-.02-.02-.04-.04-.04h-.16c-.02 0-.04.02-.04.04v.16c0 .02-.02.04-.04.04H.94C.92 1.52.9 1.5.9 1.48v-.16c0-.02-.02-.04-.04-.04H.7c-.02 0-.04.02-.04.04v.16c0 .02-.02.04-.04.04H.46a.04.04 0 0 1-.04-.04v-.16a.04.04 0 0 0-.04-.04H.22a.04.04 0 0 0-.04.04v.16c0 .02.012.052.028.068l.024.024a.113.113 0 0 1 .028.068v.88c0 .02.016.04.04.04h.64v-.48c0-.176.144-.32.32-.32s.32.144.32.32v.48h.64c.02 0 .04-.02.04-.04v-.88c0-.02.012-.052.028-.068l.024-.024a.113.113 0 0 0 .028-.068v-.16c0-.02-.02-.04-.04-.04" fill="#dae3ea"/>
	<g fill="#3e4347">
		<path d="M.38.88h.16v.24H.38z"/>
		<path d="M.54.88a.08.08 0 0 1-.08.08.08.08 0 0 1-.08-.08.08.08 0 0 1 .16 0zm1.44 0h.16v.24h-.16z"/>
		<path d="M2.14.88a.08.08 0 0 1-.08.08.08.08 0 0 1-.08-.08.08.08 0 0 1 .16 0z"/>
	</g>
	<path d="M.4 1.76H.24a.04.04 0 0 0-.04.04v.08c0 .02.016.04.04.04H.4a.04.04 0 0 0 .04-.04V1.8a.04.04 0 0 0-.04-.04" fill="#b2c1c0"/>
	<path d="M.82.264C.712.204.608.324.5.264V.06c.108.06.212-.06.32 0a.406.406 0 0 0-.08.084.622.622 0 0 1 .08.12m.8 0c-.108-.06-.212.06-.32 0V.06c.108.06.212-.06.32 0a.406.406 0 0 0-.08.084.622.622 0 0 1 .08.12m.8 0c-.108-.06-.212.06-.32 0V.06c.108.06.212-.06.32 0a.406.406 0 0 0-.08.084.622.622 0 0 1 .08.12" fill="#42ade2"/>
	<path d="M.52 2H.36a.04.04 0 0 0-.04.04v.08c0 .02.016.04.04.04h.16a.04.04 0 0 0 .04-.04v-.08A.04.04 0 0 0 .52 2m.352.4h-.16c-.02 0-.04.02-.04.04v.08c0 .02.02.04.04.04h.16c.02 0 .04-.02.04-.04v-.08c0-.02-.02-.04-.04-.04m-.084-.2h-.16a.04.04 0 0 0-.04.04v.08c0 .02.016.04.04.04h.16c.02 0 .04-.02.04-.04v-.08c0-.02-.02-.04-.04-.04m.084-.32h-.16c-.02 0-.04.02-.04.04V2c0 .02.02.04.04.04h.16c.02 0 .04-.02.04-.04v-.08c0-.02-.02-.04-.04-.04M.76 1.596H.6a.04.04 0 0 0-.04.04v.08c0 .02.016.04.04.04h.16c.02 0 .04-.02.04-.04v-.08c0-.02-.02-.04-.04-.04M.4 2.24H.24a.04.04 0 0 0-.04.04v.08c0 .02.016.04.04.04H.4a.04.04 0 0 0 .04-.04v-.08a.04.04 0 0 0-.04-.04M2.28 2h-.16c-.02 0-.04.02-.04.04v.08c0 .02.02.04.04.04h.16c.02 0 .04-.02.04-.04v-.08c0-.02-.02-.04-.04-.04m-.12.24H2c-.02 0-.04.02-.04.04v.08c0 .02.02.04.04.04h.16c.02 0 .04-.02.04-.04v-.08c0-.02-.02-.04-.04-.04m-.18-.452h-.16c-.02 0-.04.02-.04.04v.08c0 .02.02.04.04.04h.16c.02 0 .04-.02.04-.04v-.08a.04.04 0 0 0-.04-.04m-.16.272h-.16c-.02 0-.04.02-.04.04v.08c0 .02.02.04.04.04h.16c.02 0 .04-.02.04-.04V2.1c0-.02-.02-.04-.04-.04m.076.34h-.16c-.02 0-.04.02-.04.04v.08c0 .02.02.04.04.04h.16c.02 0 .04-.02.04-.04v-.08c0-.02-.02-.04-.04-.04m.364-.832H2.1c-.02 0-.04.02-.04.04v.08c0 .02.02.04.04.04h.16c.02 0 .04-.02.04-.04v-.08a.04.04 0 0 0-.04-.04m-.62.04h-.16c-.02 0-.04.02-.04.04v.08c0 .02.02.04.04.04h.16c.02 0 .04-.02.04-.04v-.08a.04.04 0 0 0-.04-.04" fill="#b2c1c0"/>
	<path d="M.54 1.116H.38a.04.04 0 0 0-.04.04v.008c0 .02.016.04.04.04h.16a.04.04 0 0 0 .04-.04v-.008c0-.024-.016-.04-.04-.04m1.6 0h-.16c-.02 0-.04.02-.04.04v.008c0 .02.02.04.04.04h.16c.02 0 .04-.02.04-.04v-.008a.04.04 0 0 0-.04-.04" fill="#e8e8e8"/>
</svg>
